<svg width="48" height="48" viewBox="0 0 48 48" fill="none" xmlns="http://www.w3.org/2000/svg">
  <defs>
    <linearGradient id="cross" x1="24" y1="6" x2="24" y2="42" gradientUnits="userSpaceOnUse">
      <stop stop-color="#0c7a50"/>
      <stop offset="1" stop-color="#095e3c"/>
    </linearGradient>
    <linearGradient id="leaf" x1="20" y1="26" x2="31" y2="44" gradientUnits="userSpaceOnUse">
      <stop stop-color="#9af3c0"/>
      <stop offset="0.5" stop-color="#5ccd92"/>
      <stop offset="1" stop-color="#38b074"/>
    </linearGradient>
  </defs>
  <rect width="48" height="48" rx="11" fill="#ffffff"/>
  <path d="M22 6 H26 a3 3 0 0 1 3 3 V19 H39 a3 3 0 0 1 3 3 V26 a3 3 0 0 1 -3 3 H29 V39 a3 3 0 0 1 -3 3 H22 a3 3 0 0 1 -3 -3 V29 H9 a3 3 0 0 1 -3 -3 V22 a3 3 0 0 1 3 -3 H19 V9 a3 3 0 0 1 3 -3 Z" fill="url(#cross)"/>
  <g transform="translate(25 34) rotate(22)">
    <path d="M0 -8 C 2.6 -5.6 3.2 -1.8 2.5 1.8 C 1.9 4.2 0.9 5.8 0.3 6.4 L 0 6.7 L -0.3 6.4 C -0.9 5.8 -1.9 4.2 -2.5 1.8 C -3.2 -1.8 -2.6 -5.6 0 -8 Z" fill="url(#leaf)"/>
    <path d="M0 6.7 L0.6 8.4" stroke="#0a5336" stroke-width="0.8" stroke-linecap="round"/>
    <path d="M0 -7.2 L0 6.4" stroke="#0a5336" stroke-width="0.75" stroke-linecap="round"/>
    <path d="M0 -3.2 L1.9 -1.4 M0 -3.2 L-1.9 -1.4 M0 0.4 L2.1 2.2 M0 0.4 L-2.1 2.2" stroke="#0a5336" stroke-width="0.5" stroke-linecap="round" opacity="0.85"/>
  </g>
</svg>
